G04 #@! TF.GenerationSoftware,KiCad,Pcbnew,8.0.1*
G04 #@! TF.CreationDate,2024-04-26T23:06:05-04:00*
G04 #@! TF.ProjectId,eDP adapter,65445020-6164-4617-9074-65722e6b6963,rev?*
G04 #@! TF.SameCoordinates,Original*
G04 #@! TF.FileFunction,Soldermask,Top*
G04 #@! TF.FilePolarity,Negative*
%FSLAX46Y46*%
G04 Gerber Fmt 4.6, Leading zero omitted, Abs format (unit mm)*
G04 Created by KiCad (PCBNEW 8.0.1) date 2024-04-26 23:06:05*
%MOMM*%
%LPD*%
G01*
G04 APERTURE LIST*
G04 Aperture macros list*
%AMRoundRect*
0 Rectangle with rounded corners*
0 $1 Rounding radius*
0 $2 $3 $4 $5 $6 $7 $8 $9 X,Y pos of 4 corners*
0 Add a 4 corners polygon primitive as box body*
4,1,4,$2,$3,$4,$5,$6,$7,$8,$9,$2,$3,0*
0 Add four circle primitives for the rounded corners*
1,1,$1+$1,$2,$3*
1,1,$1+$1,$4,$5*
1,1,$1+$1,$6,$7*
1,1,$1+$1,$8,$9*
0 Add four rect primitives between the rounded corners*
20,1,$1+$1,$2,$3,$4,$5,0*
20,1,$1+$1,$4,$5,$6,$7,0*
20,1,$1+$1,$6,$7,$8,$9,0*
20,1,$1+$1,$8,$9,$2,$3,0*%
G04 Aperture macros list end*
%ADD10C,2.000000*%
%ADD11R,1.000000X1.500000*%
%ADD12R,0.900000X0.250000*%
%ADD13R,0.900000X0.550000*%
%ADD14R,1.900000X1.400000*%
%ADD15RoundRect,0.250000X0.400000X0.625000X-0.400000X0.625000X-0.400000X-0.625000X0.400000X-0.625000X0*%
G04 APERTURE END LIST*
D10*
X93000000Y-116000000D03*
D11*
X95700000Y-128000000D03*
X97000000Y-128000000D03*
X98300000Y-128000000D03*
D10*
X131000000Y-122000000D03*
X94000000Y-138000000D03*
D11*
X107300000Y-128000000D03*
X106000000Y-128000000D03*
X104700000Y-128000000D03*
D12*
X130500000Y-111100000D03*
X130500000Y-110600000D03*
X130500000Y-110100000D03*
X130500000Y-109600000D03*
X130500000Y-109100000D03*
X130500000Y-108600000D03*
X130500000Y-108100000D03*
X130500000Y-107600000D03*
X130500000Y-107100000D03*
X130500000Y-106600000D03*
X130500000Y-106100000D03*
X130500000Y-105600000D03*
X130500000Y-105100000D03*
X130500000Y-104600000D03*
X130500000Y-104100000D03*
X130500000Y-103600000D03*
X130500000Y-103100000D03*
X130500000Y-102600000D03*
X130500000Y-102100000D03*
X130500000Y-101600000D03*
X130500000Y-101100000D03*
X130500000Y-100600000D03*
X130500000Y-100100000D03*
X130500000Y-99600000D03*
X130500000Y-99100000D03*
X130500000Y-98600000D03*
X130500000Y-98100000D03*
X130500000Y-97600000D03*
X130500000Y-97100000D03*
X130500000Y-96600000D03*
X130500000Y-96100000D03*
X130500000Y-95600000D03*
X130500000Y-95100000D03*
X130500000Y-94600000D03*
X130500000Y-94100000D03*
X130500000Y-93600000D03*
X130500000Y-93100000D03*
X130500000Y-92600000D03*
X130500000Y-92100000D03*
X130500000Y-91600000D03*
D13*
X130500000Y-112000000D03*
D14*
X127680000Y-114200000D03*
X133320000Y-114200000D03*
D13*
X130500000Y-90700000D03*
D14*
X127680000Y-88500000D03*
X133320000Y-88500000D03*
D10*
X77000000Y-138000000D03*
X131000000Y-134000000D03*
X131000000Y-128000000D03*
X83000000Y-138000000D03*
D11*
X85400000Y-128000000D03*
X86700000Y-128000000D03*
X88000000Y-128000000D03*
D10*
X73000000Y-125800000D03*
X89000000Y-138000000D03*
X99630000Y-117400000D03*
X100000000Y-138000000D03*
D15*
X94000000Y-123000000D03*
X90900000Y-123000000D03*
D10*
X118000000Y-138000000D03*
X112000000Y-138000000D03*
D15*
X103000000Y-123000000D03*
X99900000Y-123000000D03*
D10*
X106000000Y-138000000D03*
X73000000Y-130000000D03*
M02*
