M48
; DRILL file {KiCad 8.0.1} date 2024-04-26T23:08:44-0400
; FORMAT={-:-/ absolute / metric / decimal}
; #@! TF.CreationDate,2024-04-26T23:08:44-04:00
; #@! TF.GenerationSoftware,Kicad,Pcbnew,8.0.1
; #@! TF.FileFunction,Plated,1,4,PTH
FMAT,2
METRIC
; #@! TA.AperFunction,Plated,PTH,ViaDrill
T1C0.300
; #@! TA.AperFunction,Plated,PTH,ViaDrill
T2C0.400
%
G90
G05
T1
X69.825Y-104.292
X70.358Y-128.397
X70.561Y-132.664
X70.815Y-118.161
X71.145Y-123.596
X71.58Y-95.405
X71.58Y-96.71
X71.58Y-97.91
X71.58Y-99.11
X71.58Y-100.31
X71.58Y-101.51
X71.58Y-102.71
X71.58Y-103.91
X71.58Y-105.11
X71.58Y-106.31
X71.58Y-107.51
X71.58Y-108.71
X71.58Y-109.91
X71.58Y-111.11
X71.58Y-112.415
X72.339Y-138.557
X72.855Y-93.725
X72.855Y-114.095
X73.787Y-89.129
X74.244Y-117.551
X74.854Y-123.215
X74.955Y-133.299
X75.21Y-114.045
X75.895Y-125.984
X76.23Y-94.13
X76.445Y-95.47
X76.445Y-96.71
X76.445Y-97.91
X76.445Y-99.11
X76.445Y-100.31
X76.445Y-101.51
X76.445Y-102.71
X76.445Y-103.91
X76.445Y-105.11
X76.445Y-106.31
X76.445Y-107.51
X76.445Y-108.67
X76.445Y-111.11
X76.445Y-112.35
X76.45Y-109.93
X77.572Y-129.819
X77.648Y-112.649
X77.699Y-120.879
X78.461Y-116.764
X78.765Y-99.085
X79.172Y-102.845
X79.578Y-114.706
X80.09Y-100.32
X80.12Y-101.52
X80.467Y-106.248
X80.747Y-124.866
X81.128Y-96.977
X82.067Y-99.111
X82.067Y-117.45
X82.601Y-115.341
X82.652Y-120.853
X83.642Y-106.274
X83.795Y-102.641
X83.972Y-112.7
X84.052Y-115.52
X84.21Y-100.32
X84.89Y-115.52
X84.912Y-133.147
X85.115Y-109.245
X85.69Y-115.52
X85.75Y-113.919
X86.47Y-118.11
X86.528Y-115.52
X87.89Y-112.53
X88.011Y-99.136
X88.163Y-96.825
X88.468Y-89.865
X88.773Y-104.318
X89.103Y-101.524
X89.179Y-120.802
X89.865Y-109.245
X89.967Y-106.782
X90.13Y-118.38
X92.0Y-131.0
X92.812Y-126.365
X92.94Y-128.02
X92.961Y-100.893
X92.961Y-101.731
X92.961Y-102.569
X92.961Y-103.369
X92.961Y-104.207
X92.961Y-105.045
X92.961Y-105.845
X92.961Y-106.684
X92.961Y-107.522
X92.961Y-108.322
X92.961Y-109.16
X92.964Y-99.254
X92.964Y-100.093
X94.564Y-134.722
X94.717Y-96.495
X95.453Y-106.731
X95.885Y-109.525
X96.52Y-104.089
X96.647Y-140.614
X96.672Y-101.702
X97.409Y-123.825
X98.146Y-108.28
X98.273Y-99.441
X99.644Y-131.445
X99.873Y-105.131
X100.609Y-112.827
X100.72Y-129.33
X101.092Y-102.108
X101.321Y-107.061
X101.6Y-96.571
X102.5Y-127.98
X102.514Y-129.438
X102.768Y-109.144
X102.997Y-138.201
X103.581Y-103.734
X103.759Y-89.865
X104.75Y-113.03
X105.181Y-100.152
X105.512Y-105.537
X105.994Y-109.144
X106.655Y-120.65
X107.34Y-107.645
X108.56Y-134.62
X108.661Y-140.97
X109.042Y-103.505
X109.068Y-106.147
X109.195Y-100.051
X109.372Y-96.545
X109.398Y-113.513
X112.039Y-111.557
X112.06Y-129.48
X112.776Y-100.101
X112.954Y-109.144
X113.944Y-123.469
X114.579Y-107.569
X114.93Y-130.97
X115.214Y-89.84
X115.367Y-99.695
X115.57Y-97.657
X115.951Y-106.121
X116.068Y-97.023
X116.129Y-129.337
X116.38Y-97.78
X116.388Y-111.545
X118.516Y-117.348
X119.05Y-104.064
X120.218Y-111.76
X120.244Y-109.144
X120.421Y-124.155
X121.031Y-107.518
X121.615Y-106.147
X122.428Y-101.448
X122.67Y-95.1
X123.797Y-96.124
X124.536Y-99.162
X124.739Y-137.973
X124.841Y-111.709
X125.197Y-90.881
X125.425Y-118.72
X125.832Y-104.648
X125.84Y-96.89
X125.984Y-130.404
X126.238Y-109.169
X126.263Y-107.594
X126.314Y-106.096
X127.0Y-122.0
X127.229Y-102.286
X127.63Y-87.16
X127.74Y-115.58
X129.07Y-112.05
X129.4Y-96.85
X129.43Y-99.32
X129.44Y-90.68
X131.719Y-103.1
X131.719Y-104.6
X131.719Y-106.1
X131.719Y-107.6
X131.719Y-109.1
X131.719Y-110.6
X134.341Y-130.886
X134.544Y-139.014
X134.849Y-119.024
X134.93Y-88.55
X134.96Y-114.22
T2
X99.63Y-114.04
X102.76Y-93.43
X123.32Y-97.07
M30
