G04 #@! TF.GenerationSoftware,KiCad,Pcbnew,8.0.1*
G04 #@! TF.CreationDate,2024-04-26T23:06:05-04:00*
G04 #@! TF.ProjectId,eDP adapter,65445020-6164-4617-9074-65722e6b6963,rev?*
G04 #@! TF.SameCoordinates,Original*
G04 #@! TF.FileFunction,Legend,Top*
G04 #@! TF.FilePolarity,Positive*
%FSLAX46Y46*%
G04 Gerber Fmt 4.6, Leading zero omitted, Abs format (unit mm)*
G04 Created by KiCad (PCBNEW 8.0.1) date 2024-04-26 23:06:05*
%MOMM*%
%LPD*%
G01*
G04 APERTURE LIST*
G04 Aperture macros list*
%AMRoundRect*
0 Rectangle with rounded corners*
0 $1 Rounding radius*
0 $2 $3 $4 $5 $6 $7 $8 $9 X,Y pos of 4 corners*
0 Add a 4 corners polygon primitive as box body*
4,1,4,$2,$3,$4,$5,$6,$7,$8,$9,$2,$3,0*
0 Add four circle primitives for the rounded corners*
1,1,$1+$1,$2,$3*
1,1,$1+$1,$4,$5*
1,1,$1+$1,$6,$7*
1,1,$1+$1,$8,$9*
0 Add four rect primitives between the rounded corners*
20,1,$1+$1,$2,$3,$4,$5,0*
20,1,$1+$1,$4,$5,$6,$7,0*
20,1,$1+$1,$6,$7,$8,$9,0*
20,1,$1+$1,$8,$9,$2,$3,0*%
G04 Aperture macros list end*
%ADD10C,0.150000*%
%ADD11C,0.120000*%
%ADD12C,0.127000*%
%ADD13C,0.200000*%
%ADD14C,2.000000*%
%ADD15R,1.000000X1.500000*%
%ADD16R,0.900000X0.250000*%
%ADD17R,0.900000X0.550000*%
%ADD18R,1.900000X1.400000*%
%ADD19RoundRect,0.250000X0.400000X0.625000X-0.400000X0.625000X-0.400000X-0.625000X0.400000X-0.625000X0*%
G04 APERTURE END LIST*
D10*
X91261905Y-113456819D02*
X91833333Y-113456819D01*
X91547619Y-114456819D02*
X91547619Y-113456819D01*
X92166667Y-114456819D02*
X92166667Y-113456819D01*
X92166667Y-113456819D02*
X92547619Y-113456819D01*
X92547619Y-113456819D02*
X92642857Y-113504438D01*
X92642857Y-113504438D02*
X92690476Y-113552057D01*
X92690476Y-113552057D02*
X92738095Y-113647295D01*
X92738095Y-113647295D02*
X92738095Y-113790152D01*
X92738095Y-113790152D02*
X92690476Y-113885390D01*
X92690476Y-113885390D02*
X92642857Y-113933009D01*
X92642857Y-113933009D02*
X92547619Y-113980628D01*
X92547619Y-113980628D02*
X92166667Y-113980628D01*
X93690476Y-114456819D02*
X93119048Y-114456819D01*
X93404762Y-114456819D02*
X93404762Y-113456819D01*
X93404762Y-113456819D02*
X93309524Y-113599676D01*
X93309524Y-113599676D02*
X93214286Y-113694914D01*
X93214286Y-113694914D02*
X93119048Y-113742533D01*
X94642857Y-114456819D02*
X94071429Y-114456819D01*
X94357143Y-114456819D02*
X94357143Y-113456819D01*
X94357143Y-113456819D02*
X94261905Y-113599676D01*
X94261905Y-113599676D02*
X94166667Y-113694914D01*
X94166667Y-113694914D02*
X94071429Y-113742533D01*
X96166666Y-125654819D02*
X96166666Y-126369104D01*
X96166666Y-126369104D02*
X96119047Y-126511961D01*
X96119047Y-126511961D02*
X96023809Y-126607200D01*
X96023809Y-126607200D02*
X95880952Y-126654819D01*
X95880952Y-126654819D02*
X95785714Y-126654819D01*
X96642857Y-126654819D02*
X96642857Y-125654819D01*
X96642857Y-125654819D02*
X97023809Y-125654819D01*
X97023809Y-125654819D02*
X97119047Y-125702438D01*
X97119047Y-125702438D02*
X97166666Y-125750057D01*
X97166666Y-125750057D02*
X97214285Y-125845295D01*
X97214285Y-125845295D02*
X97214285Y-125988152D01*
X97214285Y-125988152D02*
X97166666Y-126083390D01*
X97166666Y-126083390D02*
X97119047Y-126131009D01*
X97119047Y-126131009D02*
X97023809Y-126178628D01*
X97023809Y-126178628D02*
X96642857Y-126178628D01*
X97595238Y-125750057D02*
X97642857Y-125702438D01*
X97642857Y-125702438D02*
X97738095Y-125654819D01*
X97738095Y-125654819D02*
X97976190Y-125654819D01*
X97976190Y-125654819D02*
X98071428Y-125702438D01*
X98071428Y-125702438D02*
X98119047Y-125750057D01*
X98119047Y-125750057D02*
X98166666Y-125845295D01*
X98166666Y-125845295D02*
X98166666Y-125940533D01*
X98166666Y-125940533D02*
X98119047Y-126083390D01*
X98119047Y-126083390D02*
X97547619Y-126654819D01*
X97547619Y-126654819D02*
X98166666Y-126654819D01*
X129261905Y-119456819D02*
X129833333Y-119456819D01*
X129547619Y-120456819D02*
X129547619Y-119456819D01*
X130166667Y-120456819D02*
X130166667Y-119456819D01*
X130166667Y-119456819D02*
X130547619Y-119456819D01*
X130547619Y-119456819D02*
X130642857Y-119504438D01*
X130642857Y-119504438D02*
X130690476Y-119552057D01*
X130690476Y-119552057D02*
X130738095Y-119647295D01*
X130738095Y-119647295D02*
X130738095Y-119790152D01*
X130738095Y-119790152D02*
X130690476Y-119885390D01*
X130690476Y-119885390D02*
X130642857Y-119933009D01*
X130642857Y-119933009D02*
X130547619Y-119980628D01*
X130547619Y-119980628D02*
X130166667Y-119980628D01*
X131690476Y-120456819D02*
X131119048Y-120456819D01*
X131404762Y-120456819D02*
X131404762Y-119456819D01*
X131404762Y-119456819D02*
X131309524Y-119599676D01*
X131309524Y-119599676D02*
X131214286Y-119694914D01*
X131214286Y-119694914D02*
X131119048Y-119742533D01*
X132595238Y-119456819D02*
X132119048Y-119456819D01*
X132119048Y-119456819D02*
X132071429Y-119933009D01*
X132071429Y-119933009D02*
X132119048Y-119885390D01*
X132119048Y-119885390D02*
X132214286Y-119837771D01*
X132214286Y-119837771D02*
X132452381Y-119837771D01*
X132452381Y-119837771D02*
X132547619Y-119885390D01*
X132547619Y-119885390D02*
X132595238Y-119933009D01*
X132595238Y-119933009D02*
X132642857Y-120028247D01*
X132642857Y-120028247D02*
X132642857Y-120266342D01*
X132642857Y-120266342D02*
X132595238Y-120361580D01*
X132595238Y-120361580D02*
X132547619Y-120409200D01*
X132547619Y-120409200D02*
X132452381Y-120456819D01*
X132452381Y-120456819D02*
X132214286Y-120456819D01*
X132214286Y-120456819D02*
X132119048Y-120409200D01*
X132119048Y-120409200D02*
X132071429Y-120361580D01*
X92261905Y-135456819D02*
X92833333Y-135456819D01*
X92547619Y-136456819D02*
X92547619Y-135456819D01*
X93166667Y-136456819D02*
X93166667Y-135456819D01*
X93166667Y-135456819D02*
X93547619Y-135456819D01*
X93547619Y-135456819D02*
X93642857Y-135504438D01*
X93642857Y-135504438D02*
X93690476Y-135552057D01*
X93690476Y-135552057D02*
X93738095Y-135647295D01*
X93738095Y-135647295D02*
X93738095Y-135790152D01*
X93738095Y-135790152D02*
X93690476Y-135885390D01*
X93690476Y-135885390D02*
X93642857Y-135933009D01*
X93642857Y-135933009D02*
X93547619Y-135980628D01*
X93547619Y-135980628D02*
X93166667Y-135980628D01*
X94690476Y-136456819D02*
X94119048Y-136456819D01*
X94404762Y-136456819D02*
X94404762Y-135456819D01*
X94404762Y-135456819D02*
X94309524Y-135599676D01*
X94309524Y-135599676D02*
X94214286Y-135694914D01*
X94214286Y-135694914D02*
X94119048Y-135742533D01*
X95309524Y-135456819D02*
X95404762Y-135456819D01*
X95404762Y-135456819D02*
X95500000Y-135504438D01*
X95500000Y-135504438D02*
X95547619Y-135552057D01*
X95547619Y-135552057D02*
X95595238Y-135647295D01*
X95595238Y-135647295D02*
X95642857Y-135837771D01*
X95642857Y-135837771D02*
X95642857Y-136075866D01*
X95642857Y-136075866D02*
X95595238Y-136266342D01*
X95595238Y-136266342D02*
X95547619Y-136361580D01*
X95547619Y-136361580D02*
X95500000Y-136409200D01*
X95500000Y-136409200D02*
X95404762Y-136456819D01*
X95404762Y-136456819D02*
X95309524Y-136456819D01*
X95309524Y-136456819D02*
X95214286Y-136409200D01*
X95214286Y-136409200D02*
X95166667Y-136361580D01*
X95166667Y-136361580D02*
X95119048Y-136266342D01*
X95119048Y-136266342D02*
X95071429Y-136075866D01*
X95071429Y-136075866D02*
X95071429Y-135837771D01*
X95071429Y-135837771D02*
X95119048Y-135647295D01*
X95119048Y-135647295D02*
X95166667Y-135552057D01*
X95166667Y-135552057D02*
X95214286Y-135504438D01*
X95214286Y-135504438D02*
X95309524Y-135456819D01*
X105166666Y-129254819D02*
X105166666Y-129969104D01*
X105166666Y-129969104D02*
X105119047Y-130111961D01*
X105119047Y-130111961D02*
X105023809Y-130207200D01*
X105023809Y-130207200D02*
X104880952Y-130254819D01*
X104880952Y-130254819D02*
X104785714Y-130254819D01*
X105642857Y-130254819D02*
X105642857Y-129254819D01*
X105642857Y-129254819D02*
X106023809Y-129254819D01*
X106023809Y-129254819D02*
X106119047Y-129302438D01*
X106119047Y-129302438D02*
X106166666Y-129350057D01*
X106166666Y-129350057D02*
X106214285Y-129445295D01*
X106214285Y-129445295D02*
X106214285Y-129588152D01*
X106214285Y-129588152D02*
X106166666Y-129683390D01*
X106166666Y-129683390D02*
X106119047Y-129731009D01*
X106119047Y-129731009D02*
X106023809Y-129778628D01*
X106023809Y-129778628D02*
X105642857Y-129778628D01*
X107166666Y-130254819D02*
X106595238Y-130254819D01*
X106880952Y-130254819D02*
X106880952Y-129254819D01*
X106880952Y-129254819D02*
X106785714Y-129397676D01*
X106785714Y-129397676D02*
X106690476Y-129492914D01*
X106690476Y-129492914D02*
X106595238Y-129540533D01*
X127739819Y-112608333D02*
X128454104Y-112608333D01*
X128454104Y-112608333D02*
X128596961Y-112655952D01*
X128596961Y-112655952D02*
X128692200Y-112751190D01*
X128692200Y-112751190D02*
X128739819Y-112894047D01*
X128739819Y-112894047D02*
X128739819Y-112989285D01*
X128739819Y-111608333D02*
X128739819Y-112179761D01*
X128739819Y-111894047D02*
X127739819Y-111894047D01*
X127739819Y-111894047D02*
X127882676Y-111989285D01*
X127882676Y-111989285D02*
X127977914Y-112084523D01*
X127977914Y-112084523D02*
X128025533Y-112179761D01*
X75738095Y-135456819D02*
X76309523Y-135456819D01*
X76023809Y-136456819D02*
X76023809Y-135456819D01*
X76642857Y-136456819D02*
X76642857Y-135456819D01*
X76642857Y-135456819D02*
X77023809Y-135456819D01*
X77023809Y-135456819D02*
X77119047Y-135504438D01*
X77119047Y-135504438D02*
X77166666Y-135552057D01*
X77166666Y-135552057D02*
X77214285Y-135647295D01*
X77214285Y-135647295D02*
X77214285Y-135790152D01*
X77214285Y-135790152D02*
X77166666Y-135885390D01*
X77166666Y-135885390D02*
X77119047Y-135933009D01*
X77119047Y-135933009D02*
X77023809Y-135980628D01*
X77023809Y-135980628D02*
X76642857Y-135980628D01*
X78119047Y-135456819D02*
X77642857Y-135456819D01*
X77642857Y-135456819D02*
X77595238Y-135933009D01*
X77595238Y-135933009D02*
X77642857Y-135885390D01*
X77642857Y-135885390D02*
X77738095Y-135837771D01*
X77738095Y-135837771D02*
X77976190Y-135837771D01*
X77976190Y-135837771D02*
X78071428Y-135885390D01*
X78071428Y-135885390D02*
X78119047Y-135933009D01*
X78119047Y-135933009D02*
X78166666Y-136028247D01*
X78166666Y-136028247D02*
X78166666Y-136266342D01*
X78166666Y-136266342D02*
X78119047Y-136361580D01*
X78119047Y-136361580D02*
X78071428Y-136409200D01*
X78071428Y-136409200D02*
X77976190Y-136456819D01*
X77976190Y-136456819D02*
X77738095Y-136456819D01*
X77738095Y-136456819D02*
X77642857Y-136409200D01*
X77642857Y-136409200D02*
X77595238Y-136361580D01*
X129261905Y-131456819D02*
X129833333Y-131456819D01*
X129547619Y-132456819D02*
X129547619Y-131456819D01*
X130166667Y-132456819D02*
X130166667Y-131456819D01*
X130166667Y-131456819D02*
X130547619Y-131456819D01*
X130547619Y-131456819D02*
X130642857Y-131504438D01*
X130642857Y-131504438D02*
X130690476Y-131552057D01*
X130690476Y-131552057D02*
X130738095Y-131647295D01*
X130738095Y-131647295D02*
X130738095Y-131790152D01*
X130738095Y-131790152D02*
X130690476Y-131885390D01*
X130690476Y-131885390D02*
X130642857Y-131933009D01*
X130642857Y-131933009D02*
X130547619Y-131980628D01*
X130547619Y-131980628D02*
X130166667Y-131980628D01*
X131690476Y-132456819D02*
X131119048Y-132456819D01*
X131404762Y-132456819D02*
X131404762Y-131456819D01*
X131404762Y-131456819D02*
X131309524Y-131599676D01*
X131309524Y-131599676D02*
X131214286Y-131694914D01*
X131214286Y-131694914D02*
X131119048Y-131742533D01*
X132547619Y-131790152D02*
X132547619Y-132456819D01*
X132309524Y-131409200D02*
X132071429Y-132123485D01*
X132071429Y-132123485D02*
X132690476Y-132123485D01*
X129261905Y-125456819D02*
X129833333Y-125456819D01*
X129547619Y-126456819D02*
X129547619Y-125456819D01*
X130166667Y-126456819D02*
X130166667Y-125456819D01*
X130166667Y-125456819D02*
X130547619Y-125456819D01*
X130547619Y-125456819D02*
X130642857Y-125504438D01*
X130642857Y-125504438D02*
X130690476Y-125552057D01*
X130690476Y-125552057D02*
X130738095Y-125647295D01*
X130738095Y-125647295D02*
X130738095Y-125790152D01*
X130738095Y-125790152D02*
X130690476Y-125885390D01*
X130690476Y-125885390D02*
X130642857Y-125933009D01*
X130642857Y-125933009D02*
X130547619Y-125980628D01*
X130547619Y-125980628D02*
X130166667Y-125980628D01*
X131690476Y-126456819D02*
X131119048Y-126456819D01*
X131404762Y-126456819D02*
X131404762Y-125456819D01*
X131404762Y-125456819D02*
X131309524Y-125599676D01*
X131309524Y-125599676D02*
X131214286Y-125694914D01*
X131214286Y-125694914D02*
X131119048Y-125742533D01*
X132023810Y-125456819D02*
X132642857Y-125456819D01*
X132642857Y-125456819D02*
X132309524Y-125837771D01*
X132309524Y-125837771D02*
X132452381Y-125837771D01*
X132452381Y-125837771D02*
X132547619Y-125885390D01*
X132547619Y-125885390D02*
X132595238Y-125933009D01*
X132595238Y-125933009D02*
X132642857Y-126028247D01*
X132642857Y-126028247D02*
X132642857Y-126266342D01*
X132642857Y-126266342D02*
X132595238Y-126361580D01*
X132595238Y-126361580D02*
X132547619Y-126409200D01*
X132547619Y-126409200D02*
X132452381Y-126456819D01*
X132452381Y-126456819D02*
X132166667Y-126456819D01*
X132166667Y-126456819D02*
X132071429Y-126409200D01*
X132071429Y-126409200D02*
X132023810Y-126361580D01*
X81738095Y-135456819D02*
X82309523Y-135456819D01*
X82023809Y-136456819D02*
X82023809Y-135456819D01*
X82642857Y-136456819D02*
X82642857Y-135456819D01*
X82642857Y-135456819D02*
X83023809Y-135456819D01*
X83023809Y-135456819D02*
X83119047Y-135504438D01*
X83119047Y-135504438D02*
X83166666Y-135552057D01*
X83166666Y-135552057D02*
X83214285Y-135647295D01*
X83214285Y-135647295D02*
X83214285Y-135790152D01*
X83214285Y-135790152D02*
X83166666Y-135885390D01*
X83166666Y-135885390D02*
X83119047Y-135933009D01*
X83119047Y-135933009D02*
X83023809Y-135980628D01*
X83023809Y-135980628D02*
X82642857Y-135980628D01*
X83547619Y-135456819D02*
X84166666Y-135456819D01*
X84166666Y-135456819D02*
X83833333Y-135837771D01*
X83833333Y-135837771D02*
X83976190Y-135837771D01*
X83976190Y-135837771D02*
X84071428Y-135885390D01*
X84071428Y-135885390D02*
X84119047Y-135933009D01*
X84119047Y-135933009D02*
X84166666Y-136028247D01*
X84166666Y-136028247D02*
X84166666Y-136266342D01*
X84166666Y-136266342D02*
X84119047Y-136361580D01*
X84119047Y-136361580D02*
X84071428Y-136409200D01*
X84071428Y-136409200D02*
X83976190Y-136456819D01*
X83976190Y-136456819D02*
X83690476Y-136456819D01*
X83690476Y-136456819D02*
X83595238Y-136409200D01*
X83595238Y-136409200D02*
X83547619Y-136361580D01*
X85866666Y-125654819D02*
X85866666Y-126369104D01*
X85866666Y-126369104D02*
X85819047Y-126511961D01*
X85819047Y-126511961D02*
X85723809Y-126607200D01*
X85723809Y-126607200D02*
X85580952Y-126654819D01*
X85580952Y-126654819D02*
X85485714Y-126654819D01*
X86342857Y-126654819D02*
X86342857Y-125654819D01*
X86342857Y-125654819D02*
X86723809Y-125654819D01*
X86723809Y-125654819D02*
X86819047Y-125702438D01*
X86819047Y-125702438D02*
X86866666Y-125750057D01*
X86866666Y-125750057D02*
X86914285Y-125845295D01*
X86914285Y-125845295D02*
X86914285Y-125988152D01*
X86914285Y-125988152D02*
X86866666Y-126083390D01*
X86866666Y-126083390D02*
X86819047Y-126131009D01*
X86819047Y-126131009D02*
X86723809Y-126178628D01*
X86723809Y-126178628D02*
X86342857Y-126178628D01*
X87247619Y-125654819D02*
X87866666Y-125654819D01*
X87866666Y-125654819D02*
X87533333Y-126035771D01*
X87533333Y-126035771D02*
X87676190Y-126035771D01*
X87676190Y-126035771D02*
X87771428Y-126083390D01*
X87771428Y-126083390D02*
X87819047Y-126131009D01*
X87819047Y-126131009D02*
X87866666Y-126226247D01*
X87866666Y-126226247D02*
X87866666Y-126464342D01*
X87866666Y-126464342D02*
X87819047Y-126559580D01*
X87819047Y-126559580D02*
X87771428Y-126607200D01*
X87771428Y-126607200D02*
X87676190Y-126654819D01*
X87676190Y-126654819D02*
X87390476Y-126654819D01*
X87390476Y-126654819D02*
X87295238Y-126607200D01*
X87295238Y-126607200D02*
X87247619Y-126559580D01*
X71738095Y-123256819D02*
X72309523Y-123256819D01*
X72023809Y-124256819D02*
X72023809Y-123256819D01*
X72642857Y-124256819D02*
X72642857Y-123256819D01*
X72642857Y-123256819D02*
X73023809Y-123256819D01*
X73023809Y-123256819D02*
X73119047Y-123304438D01*
X73119047Y-123304438D02*
X73166666Y-123352057D01*
X73166666Y-123352057D02*
X73214285Y-123447295D01*
X73214285Y-123447295D02*
X73214285Y-123590152D01*
X73214285Y-123590152D02*
X73166666Y-123685390D01*
X73166666Y-123685390D02*
X73119047Y-123733009D01*
X73119047Y-123733009D02*
X73023809Y-123780628D01*
X73023809Y-123780628D02*
X72642857Y-123780628D01*
X73595238Y-123352057D02*
X73642857Y-123304438D01*
X73642857Y-123304438D02*
X73738095Y-123256819D01*
X73738095Y-123256819D02*
X73976190Y-123256819D01*
X73976190Y-123256819D02*
X74071428Y-123304438D01*
X74071428Y-123304438D02*
X74119047Y-123352057D01*
X74119047Y-123352057D02*
X74166666Y-123447295D01*
X74166666Y-123447295D02*
X74166666Y-123542533D01*
X74166666Y-123542533D02*
X74119047Y-123685390D01*
X74119047Y-123685390D02*
X73547619Y-124256819D01*
X73547619Y-124256819D02*
X74166666Y-124256819D01*
X87738095Y-135456819D02*
X88309523Y-135456819D01*
X88023809Y-136456819D02*
X88023809Y-135456819D01*
X88642857Y-136456819D02*
X88642857Y-135456819D01*
X88642857Y-135456819D02*
X89023809Y-135456819D01*
X89023809Y-135456819D02*
X89119047Y-135504438D01*
X89119047Y-135504438D02*
X89166666Y-135552057D01*
X89166666Y-135552057D02*
X89214285Y-135647295D01*
X89214285Y-135647295D02*
X89214285Y-135790152D01*
X89214285Y-135790152D02*
X89166666Y-135885390D01*
X89166666Y-135885390D02*
X89119047Y-135933009D01*
X89119047Y-135933009D02*
X89023809Y-135980628D01*
X89023809Y-135980628D02*
X88642857Y-135980628D01*
X90071428Y-135790152D02*
X90071428Y-136456819D01*
X89833333Y-135409200D02*
X89595238Y-136123485D01*
X89595238Y-136123485D02*
X90214285Y-136123485D01*
X97891905Y-114856819D02*
X98463333Y-114856819D01*
X98177619Y-115856819D02*
X98177619Y-114856819D01*
X98796667Y-115856819D02*
X98796667Y-114856819D01*
X98796667Y-114856819D02*
X99177619Y-114856819D01*
X99177619Y-114856819D02*
X99272857Y-114904438D01*
X99272857Y-114904438D02*
X99320476Y-114952057D01*
X99320476Y-114952057D02*
X99368095Y-115047295D01*
X99368095Y-115047295D02*
X99368095Y-115190152D01*
X99368095Y-115190152D02*
X99320476Y-115285390D01*
X99320476Y-115285390D02*
X99272857Y-115333009D01*
X99272857Y-115333009D02*
X99177619Y-115380628D01*
X99177619Y-115380628D02*
X98796667Y-115380628D01*
X100320476Y-115856819D02*
X99749048Y-115856819D01*
X100034762Y-115856819D02*
X100034762Y-114856819D01*
X100034762Y-114856819D02*
X99939524Y-114999676D01*
X99939524Y-114999676D02*
X99844286Y-115094914D01*
X99844286Y-115094914D02*
X99749048Y-115142533D01*
X100701429Y-114952057D02*
X100749048Y-114904438D01*
X100749048Y-114904438D02*
X100844286Y-114856819D01*
X100844286Y-114856819D02*
X101082381Y-114856819D01*
X101082381Y-114856819D02*
X101177619Y-114904438D01*
X101177619Y-114904438D02*
X101225238Y-114952057D01*
X101225238Y-114952057D02*
X101272857Y-115047295D01*
X101272857Y-115047295D02*
X101272857Y-115142533D01*
X101272857Y-115142533D02*
X101225238Y-115285390D01*
X101225238Y-115285390D02*
X100653810Y-115856819D01*
X100653810Y-115856819D02*
X101272857Y-115856819D01*
X98738095Y-135456819D02*
X99309523Y-135456819D01*
X99023809Y-136456819D02*
X99023809Y-135456819D01*
X99642857Y-136456819D02*
X99642857Y-135456819D01*
X99642857Y-135456819D02*
X100023809Y-135456819D01*
X100023809Y-135456819D02*
X100119047Y-135504438D01*
X100119047Y-135504438D02*
X100166666Y-135552057D01*
X100166666Y-135552057D02*
X100214285Y-135647295D01*
X100214285Y-135647295D02*
X100214285Y-135790152D01*
X100214285Y-135790152D02*
X100166666Y-135885390D01*
X100166666Y-135885390D02*
X100119047Y-135933009D01*
X100119047Y-135933009D02*
X100023809Y-135980628D01*
X100023809Y-135980628D02*
X99642857Y-135980628D01*
X100547619Y-135456819D02*
X101214285Y-135456819D01*
X101214285Y-135456819D02*
X100785714Y-136456819D01*
X92283333Y-125274819D02*
X91950000Y-124798628D01*
X91711905Y-125274819D02*
X91711905Y-124274819D01*
X91711905Y-124274819D02*
X92092857Y-124274819D01*
X92092857Y-124274819D02*
X92188095Y-124322438D01*
X92188095Y-124322438D02*
X92235714Y-124370057D01*
X92235714Y-124370057D02*
X92283333Y-124465295D01*
X92283333Y-124465295D02*
X92283333Y-124608152D01*
X92283333Y-124608152D02*
X92235714Y-124703390D01*
X92235714Y-124703390D02*
X92188095Y-124751009D01*
X92188095Y-124751009D02*
X92092857Y-124798628D01*
X92092857Y-124798628D02*
X91711905Y-124798628D01*
X92664286Y-124370057D02*
X92711905Y-124322438D01*
X92711905Y-124322438D02*
X92807143Y-124274819D01*
X92807143Y-124274819D02*
X93045238Y-124274819D01*
X93045238Y-124274819D02*
X93140476Y-124322438D01*
X93140476Y-124322438D02*
X93188095Y-124370057D01*
X93188095Y-124370057D02*
X93235714Y-124465295D01*
X93235714Y-124465295D02*
X93235714Y-124560533D01*
X93235714Y-124560533D02*
X93188095Y-124703390D01*
X93188095Y-124703390D02*
X92616667Y-125274819D01*
X92616667Y-125274819D02*
X93235714Y-125274819D01*
X116738095Y-135456819D02*
X117309523Y-135456819D01*
X117023809Y-136456819D02*
X117023809Y-135456819D01*
X117642857Y-136456819D02*
X117642857Y-135456819D01*
X117642857Y-135456819D02*
X118023809Y-135456819D01*
X118023809Y-135456819D02*
X118119047Y-135504438D01*
X118119047Y-135504438D02*
X118166666Y-135552057D01*
X118166666Y-135552057D02*
X118214285Y-135647295D01*
X118214285Y-135647295D02*
X118214285Y-135790152D01*
X118214285Y-135790152D02*
X118166666Y-135885390D01*
X118166666Y-135885390D02*
X118119047Y-135933009D01*
X118119047Y-135933009D02*
X118023809Y-135980628D01*
X118023809Y-135980628D02*
X117642857Y-135980628D01*
X119071428Y-135456819D02*
X118880952Y-135456819D01*
X118880952Y-135456819D02*
X118785714Y-135504438D01*
X118785714Y-135504438D02*
X118738095Y-135552057D01*
X118738095Y-135552057D02*
X118642857Y-135694914D01*
X118642857Y-135694914D02*
X118595238Y-135885390D01*
X118595238Y-135885390D02*
X118595238Y-136266342D01*
X118595238Y-136266342D02*
X118642857Y-136361580D01*
X118642857Y-136361580D02*
X118690476Y-136409200D01*
X118690476Y-136409200D02*
X118785714Y-136456819D01*
X118785714Y-136456819D02*
X118976190Y-136456819D01*
X118976190Y-136456819D02*
X119071428Y-136409200D01*
X119071428Y-136409200D02*
X119119047Y-136361580D01*
X119119047Y-136361580D02*
X119166666Y-136266342D01*
X119166666Y-136266342D02*
X119166666Y-136028247D01*
X119166666Y-136028247D02*
X119119047Y-135933009D01*
X119119047Y-135933009D02*
X119071428Y-135885390D01*
X119071428Y-135885390D02*
X118976190Y-135837771D01*
X118976190Y-135837771D02*
X118785714Y-135837771D01*
X118785714Y-135837771D02*
X118690476Y-135885390D01*
X118690476Y-135885390D02*
X118642857Y-135933009D01*
X118642857Y-135933009D02*
X118595238Y-136028247D01*
X110738095Y-135456819D02*
X111309523Y-135456819D01*
X111023809Y-136456819D02*
X111023809Y-135456819D01*
X111642857Y-136456819D02*
X111642857Y-135456819D01*
X111642857Y-135456819D02*
X112023809Y-135456819D01*
X112023809Y-135456819D02*
X112119047Y-135504438D01*
X112119047Y-135504438D02*
X112166666Y-135552057D01*
X112166666Y-135552057D02*
X112214285Y-135647295D01*
X112214285Y-135647295D02*
X112214285Y-135790152D01*
X112214285Y-135790152D02*
X112166666Y-135885390D01*
X112166666Y-135885390D02*
X112119047Y-135933009D01*
X112119047Y-135933009D02*
X112023809Y-135980628D01*
X112023809Y-135980628D02*
X111642857Y-135980628D01*
X112690476Y-136456819D02*
X112880952Y-136456819D01*
X112880952Y-136456819D02*
X112976190Y-136409200D01*
X112976190Y-136409200D02*
X113023809Y-136361580D01*
X113023809Y-136361580D02*
X113119047Y-136218723D01*
X113119047Y-136218723D02*
X113166666Y-136028247D01*
X113166666Y-136028247D02*
X113166666Y-135647295D01*
X113166666Y-135647295D02*
X113119047Y-135552057D01*
X113119047Y-135552057D02*
X113071428Y-135504438D01*
X113071428Y-135504438D02*
X112976190Y-135456819D01*
X112976190Y-135456819D02*
X112785714Y-135456819D01*
X112785714Y-135456819D02*
X112690476Y-135504438D01*
X112690476Y-135504438D02*
X112642857Y-135552057D01*
X112642857Y-135552057D02*
X112595238Y-135647295D01*
X112595238Y-135647295D02*
X112595238Y-135885390D01*
X112595238Y-135885390D02*
X112642857Y-135980628D01*
X112642857Y-135980628D02*
X112690476Y-136028247D01*
X112690476Y-136028247D02*
X112785714Y-136075866D01*
X112785714Y-136075866D02*
X112976190Y-136075866D01*
X112976190Y-136075866D02*
X113071428Y-136028247D01*
X113071428Y-136028247D02*
X113119047Y-135980628D01*
X113119047Y-135980628D02*
X113166666Y-135885390D01*
X101283333Y-125274819D02*
X100950000Y-124798628D01*
X100711905Y-125274819D02*
X100711905Y-124274819D01*
X100711905Y-124274819D02*
X101092857Y-124274819D01*
X101092857Y-124274819D02*
X101188095Y-124322438D01*
X101188095Y-124322438D02*
X101235714Y-124370057D01*
X101235714Y-124370057D02*
X101283333Y-124465295D01*
X101283333Y-124465295D02*
X101283333Y-124608152D01*
X101283333Y-124608152D02*
X101235714Y-124703390D01*
X101235714Y-124703390D02*
X101188095Y-124751009D01*
X101188095Y-124751009D02*
X101092857Y-124798628D01*
X101092857Y-124798628D02*
X100711905Y-124798628D01*
X102235714Y-125274819D02*
X101664286Y-125274819D01*
X101950000Y-125274819D02*
X101950000Y-124274819D01*
X101950000Y-124274819D02*
X101854762Y-124417676D01*
X101854762Y-124417676D02*
X101759524Y-124512914D01*
X101759524Y-124512914D02*
X101664286Y-124560533D01*
X104738095Y-135456819D02*
X105309523Y-135456819D01*
X105023809Y-136456819D02*
X105023809Y-135456819D01*
X105642857Y-136456819D02*
X105642857Y-135456819D01*
X105642857Y-135456819D02*
X106023809Y-135456819D01*
X106023809Y-135456819D02*
X106119047Y-135504438D01*
X106119047Y-135504438D02*
X106166666Y-135552057D01*
X106166666Y-135552057D02*
X106214285Y-135647295D01*
X106214285Y-135647295D02*
X106214285Y-135790152D01*
X106214285Y-135790152D02*
X106166666Y-135885390D01*
X106166666Y-135885390D02*
X106119047Y-135933009D01*
X106119047Y-135933009D02*
X106023809Y-135980628D01*
X106023809Y-135980628D02*
X105642857Y-135980628D01*
X106785714Y-135885390D02*
X106690476Y-135837771D01*
X106690476Y-135837771D02*
X106642857Y-135790152D01*
X106642857Y-135790152D02*
X106595238Y-135694914D01*
X106595238Y-135694914D02*
X106595238Y-135647295D01*
X106595238Y-135647295D02*
X106642857Y-135552057D01*
X106642857Y-135552057D02*
X106690476Y-135504438D01*
X106690476Y-135504438D02*
X106785714Y-135456819D01*
X106785714Y-135456819D02*
X106976190Y-135456819D01*
X106976190Y-135456819D02*
X107071428Y-135504438D01*
X107071428Y-135504438D02*
X107119047Y-135552057D01*
X107119047Y-135552057D02*
X107166666Y-135647295D01*
X107166666Y-135647295D02*
X107166666Y-135694914D01*
X107166666Y-135694914D02*
X107119047Y-135790152D01*
X107119047Y-135790152D02*
X107071428Y-135837771D01*
X107071428Y-135837771D02*
X106976190Y-135885390D01*
X106976190Y-135885390D02*
X106785714Y-135885390D01*
X106785714Y-135885390D02*
X106690476Y-135933009D01*
X106690476Y-135933009D02*
X106642857Y-135980628D01*
X106642857Y-135980628D02*
X106595238Y-136075866D01*
X106595238Y-136075866D02*
X106595238Y-136266342D01*
X106595238Y-136266342D02*
X106642857Y-136361580D01*
X106642857Y-136361580D02*
X106690476Y-136409200D01*
X106690476Y-136409200D02*
X106785714Y-136456819D01*
X106785714Y-136456819D02*
X106976190Y-136456819D01*
X106976190Y-136456819D02*
X107071428Y-136409200D01*
X107071428Y-136409200D02*
X107119047Y-136361580D01*
X107119047Y-136361580D02*
X107166666Y-136266342D01*
X107166666Y-136266342D02*
X107166666Y-136075866D01*
X107166666Y-136075866D02*
X107119047Y-135980628D01*
X107119047Y-135980628D02*
X107071428Y-135933009D01*
X107071428Y-135933009D02*
X106976190Y-135885390D01*
X71738095Y-127456819D02*
X72309523Y-127456819D01*
X72023809Y-128456819D02*
X72023809Y-127456819D01*
X72642857Y-128456819D02*
X72642857Y-127456819D01*
X72642857Y-127456819D02*
X73023809Y-127456819D01*
X73023809Y-127456819D02*
X73119047Y-127504438D01*
X73119047Y-127504438D02*
X73166666Y-127552057D01*
X73166666Y-127552057D02*
X73214285Y-127647295D01*
X73214285Y-127647295D02*
X73214285Y-127790152D01*
X73214285Y-127790152D02*
X73166666Y-127885390D01*
X73166666Y-127885390D02*
X73119047Y-127933009D01*
X73119047Y-127933009D02*
X73023809Y-127980628D01*
X73023809Y-127980628D02*
X72642857Y-127980628D01*
X74166666Y-128456819D02*
X73595238Y-128456819D01*
X73880952Y-128456819D02*
X73880952Y-127456819D01*
X73880952Y-127456819D02*
X73785714Y-127599676D01*
X73785714Y-127599676D02*
X73690476Y-127694914D01*
X73690476Y-127694914D02*
X73595238Y-127742533D01*
D11*
X94200000Y-116000000D02*
G75*
G02*
X91800000Y-116000000I-1200000J0D01*
G01*
X91800000Y-116000000D02*
G75*
G02*
X94200000Y-116000000I1200000J0D01*
G01*
X94950000Y-127000000D02*
X99050000Y-127000000D01*
X94950000Y-129000000D02*
X94950000Y-127000000D01*
X95400000Y-129500000D02*
X96000000Y-129500000D01*
X95700000Y-129200000D02*
X95400000Y-129500000D01*
X95700000Y-129200000D02*
X96000000Y-129500000D01*
X99050000Y-127000000D02*
X99050000Y-129000000D01*
X99050000Y-129000000D02*
X94950000Y-129000000D01*
X132200000Y-122000000D02*
G75*
G02*
X129800000Y-122000000I-1200000J0D01*
G01*
X129800000Y-122000000D02*
G75*
G02*
X132200000Y-122000000I1200000J0D01*
G01*
X95200000Y-138000000D02*
G75*
G02*
X92800000Y-138000000I-1200000J0D01*
G01*
X92800000Y-138000000D02*
G75*
G02*
X95200000Y-138000000I1200000J0D01*
G01*
X103950000Y-127000000D02*
X108050000Y-127000000D01*
X103950000Y-129000000D02*
X103950000Y-127000000D01*
X107300000Y-126800000D02*
X107000000Y-126500000D01*
X107300000Y-126800000D02*
X107600000Y-126500000D01*
X107600000Y-126500000D02*
X107000000Y-126500000D01*
X108050000Y-127000000D02*
X108050000Y-129000000D01*
X108050000Y-129000000D02*
X103950000Y-129000000D01*
D12*
X130370000Y-89115000D02*
X132050000Y-89115000D01*
X130370000Y-90100000D02*
X130370000Y-89115000D01*
X130370000Y-113585000D02*
X130370000Y-112600000D01*
X130370000Y-113585000D02*
X132050000Y-113585000D01*
X134320000Y-113150000D02*
X134320000Y-89550000D01*
D13*
X129620000Y-111100000D02*
G75*
G02*
X129420000Y-111100000I-100000J0D01*
G01*
X129420000Y-111100000D02*
G75*
G02*
X129620000Y-111100000I100000J0D01*
G01*
D11*
X78200000Y-138000000D02*
G75*
G02*
X75800000Y-138000000I-1200000J0D01*
G01*
X75800000Y-138000000D02*
G75*
G02*
X78200000Y-138000000I1200000J0D01*
G01*
X132200000Y-134000000D02*
G75*
G02*
X129800000Y-134000000I-1200000J0D01*
G01*
X129800000Y-134000000D02*
G75*
G02*
X132200000Y-134000000I1200000J0D01*
G01*
X132200000Y-128000000D02*
G75*
G02*
X129800000Y-128000000I-1200000J0D01*
G01*
X129800000Y-128000000D02*
G75*
G02*
X132200000Y-128000000I1200000J0D01*
G01*
X84200000Y-138000000D02*
G75*
G02*
X81800000Y-138000000I-1200000J0D01*
G01*
X81800000Y-138000000D02*
G75*
G02*
X84200000Y-138000000I1200000J0D01*
G01*
X84650000Y-127000000D02*
X88750000Y-127000000D01*
X84650000Y-129000000D02*
X84650000Y-127000000D01*
X85100000Y-129500000D02*
X85700000Y-129500000D01*
X85400000Y-129200000D02*
X85100000Y-129500000D01*
X85400000Y-129200000D02*
X85700000Y-129500000D01*
X88750000Y-127000000D02*
X88750000Y-129000000D01*
X88750000Y-129000000D02*
X84650000Y-129000000D01*
X74200000Y-125800000D02*
G75*
G02*
X71800000Y-125800000I-1200000J0D01*
G01*
X71800000Y-125800000D02*
G75*
G02*
X74200000Y-125800000I1200000J0D01*
G01*
X90200000Y-138000000D02*
G75*
G02*
X87800000Y-138000000I-1200000J0D01*
G01*
X87800000Y-138000000D02*
G75*
G02*
X90200000Y-138000000I1200000J0D01*
G01*
X100830000Y-117400000D02*
G75*
G02*
X98430000Y-117400000I-1200000J0D01*
G01*
X98430000Y-117400000D02*
G75*
G02*
X100830000Y-117400000I1200000J0D01*
G01*
X101200000Y-138000000D02*
G75*
G02*
X98800000Y-138000000I-1200000J0D01*
G01*
X98800000Y-138000000D02*
G75*
G02*
X101200000Y-138000000I1200000J0D01*
G01*
X93177064Y-122090000D02*
X91722936Y-122090000D01*
X93177064Y-123910000D02*
X91722936Y-123910000D01*
X119200000Y-138000000D02*
G75*
G02*
X116800000Y-138000000I-1200000J0D01*
G01*
X116800000Y-138000000D02*
G75*
G02*
X119200000Y-138000000I1200000J0D01*
G01*
X113200000Y-138000000D02*
G75*
G02*
X110800000Y-138000000I-1200000J0D01*
G01*
X110800000Y-138000000D02*
G75*
G02*
X113200000Y-138000000I1200000J0D01*
G01*
X102177064Y-122090000D02*
X100722936Y-122090000D01*
X102177064Y-123910000D02*
X100722936Y-123910000D01*
X107200000Y-138000000D02*
G75*
G02*
X104800000Y-138000000I-1200000J0D01*
G01*
X104800000Y-138000000D02*
G75*
G02*
X107200000Y-138000000I1200000J0D01*
G01*
X74200000Y-130000000D02*
G75*
G02*
X71800000Y-130000000I-1200000J0D01*
G01*
X71800000Y-130000000D02*
G75*
G02*
X74200000Y-130000000I1200000J0D01*
G01*
%LPC*%
D14*
X93000000Y-116000000D03*
D15*
X95700000Y-128000000D03*
X97000000Y-128000000D03*
X98300000Y-128000000D03*
D14*
X131000000Y-122000000D03*
X94000000Y-138000000D03*
D15*
X107300000Y-128000000D03*
X106000000Y-128000000D03*
X104700000Y-128000000D03*
D16*
X130500000Y-111100000D03*
X130500000Y-110600000D03*
X130500000Y-110100000D03*
X130500000Y-109600000D03*
X130500000Y-109100000D03*
X130500000Y-108600000D03*
X130500000Y-108100000D03*
X130500000Y-107600000D03*
X130500000Y-107100000D03*
X130500000Y-106600000D03*
X130500000Y-106100000D03*
X130500000Y-105600000D03*
X130500000Y-105100000D03*
X130500000Y-104600000D03*
X130500000Y-104100000D03*
X130500000Y-103600000D03*
X130500000Y-103100000D03*
X130500000Y-102600000D03*
X130500000Y-102100000D03*
X130500000Y-101600000D03*
X130500000Y-101100000D03*
X130500000Y-100600000D03*
X130500000Y-100100000D03*
X130500000Y-99600000D03*
X130500000Y-99100000D03*
X130500000Y-98600000D03*
X130500000Y-98100000D03*
X130500000Y-97600000D03*
X130500000Y-97100000D03*
X130500000Y-96600000D03*
X130500000Y-96100000D03*
X130500000Y-95600000D03*
X130500000Y-95100000D03*
X130500000Y-94600000D03*
X130500000Y-94100000D03*
X130500000Y-93600000D03*
X130500000Y-93100000D03*
X130500000Y-92600000D03*
X130500000Y-92100000D03*
X130500000Y-91600000D03*
D17*
X130500000Y-112000000D03*
D18*
X127680000Y-114200000D03*
X133320000Y-114200000D03*
D17*
X130500000Y-90700000D03*
D18*
X127680000Y-88500000D03*
X133320000Y-88500000D03*
D14*
X77000000Y-138000000D03*
X131000000Y-134000000D03*
X131000000Y-128000000D03*
X83000000Y-138000000D03*
D15*
X85400000Y-128000000D03*
X86700000Y-128000000D03*
X88000000Y-128000000D03*
D14*
X73000000Y-125800000D03*
X89000000Y-138000000D03*
X99630000Y-117400000D03*
X100000000Y-138000000D03*
D19*
X94000000Y-123000000D03*
X90900000Y-123000000D03*
D14*
X118000000Y-138000000D03*
X112000000Y-138000000D03*
D19*
X103000000Y-123000000D03*
X99900000Y-123000000D03*
D14*
X106000000Y-138000000D03*
X73000000Y-130000000D03*
%LPD*%
M02*
