G04 #@! TF.GenerationSoftware,KiCad,Pcbnew,8.0.1*
G04 #@! TF.CreationDate,2024-04-26T23:06:05-04:00*
G04 #@! TF.ProjectId,eDP adapter,65445020-6164-4617-9074-65722e6b6963,rev?*
G04 #@! TF.SameCoordinates,Original*
G04 #@! TF.FileFunction,Legend,Bot*
G04 #@! TF.FilePolarity,Positive*
%FSLAX46Y46*%
G04 Gerber Fmt 4.6, Leading zero omitted, Abs format (unit mm)*
G04 Created by KiCad (PCBNEW 8.0.1) date 2024-04-26 23:06:05*
%MOMM*%
%LPD*%
G01*
G04 APERTURE LIST*
%ADD10C,0.150000*%
%ADD11C,0.200000*%
%ADD12R,0.640000X0.200000*%
%ADD13R,0.360000X1.460000*%
%ADD14R,0.360000X0.450000*%
%ADD15R,0.810000X0.300000*%
%ADD16R,0.900000X0.400000*%
%ADD17R,0.510000X1.400000*%
%ADD18R,0.510000X0.450000*%
%ADD19R,0.510000X0.435000*%
G04 APERTURE END LIST*
D10*
X69069819Y-94751666D02*
X69784104Y-94751666D01*
X69784104Y-94751666D02*
X69926961Y-94704047D01*
X69926961Y-94704047D02*
X70022200Y-94608809D01*
X70022200Y-94608809D02*
X70069819Y-94465952D01*
X70069819Y-94465952D02*
X70069819Y-94370714D01*
X69165057Y-95180238D02*
X69117438Y-95227857D01*
X69117438Y-95227857D02*
X69069819Y-95323095D01*
X69069819Y-95323095D02*
X69069819Y-95561190D01*
X69069819Y-95561190D02*
X69117438Y-95656428D01*
X69117438Y-95656428D02*
X69165057Y-95704047D01*
X69165057Y-95704047D02*
X69260295Y-95751666D01*
X69260295Y-95751666D02*
X69355533Y-95751666D01*
X69355533Y-95751666D02*
X69498390Y-95704047D01*
X69498390Y-95704047D02*
X70069819Y-95132619D01*
X70069819Y-95132619D02*
X70069819Y-95751666D01*
D11*
X70645000Y-96095000D02*
G75*
G02*
X70445000Y-96095000I-100000J0D01*
G01*
X70445000Y-96095000D02*
G75*
G02*
X70645000Y-96095000I100000J0D01*
G01*
%LPC*%
D12*
X72930000Y-96110000D03*
X72930000Y-96510000D03*
X72930000Y-96910000D03*
X72930000Y-97310000D03*
X72930000Y-97710000D03*
X72930000Y-98110000D03*
X72930000Y-98510000D03*
X72930000Y-98910000D03*
X72930000Y-99310000D03*
X72930000Y-99710000D03*
X72930000Y-100110000D03*
X72930000Y-100510000D03*
X72930000Y-100910000D03*
X72930000Y-101310000D03*
X72930000Y-101710000D03*
X72930000Y-102110000D03*
X72930000Y-102510000D03*
X72930000Y-102910000D03*
X72930000Y-103310000D03*
X72930000Y-103710000D03*
X72930000Y-104110000D03*
X72930000Y-104510000D03*
X72930000Y-104910000D03*
X72930000Y-105310000D03*
X72930000Y-105710000D03*
X72930000Y-106110000D03*
X72930000Y-106510000D03*
X72930000Y-106910000D03*
X72930000Y-107310000D03*
X72930000Y-107710000D03*
X72930000Y-108110000D03*
X72930000Y-108510000D03*
X72930000Y-108910000D03*
X72930000Y-109310000D03*
X72930000Y-109710000D03*
X72930000Y-110110000D03*
X72930000Y-110510000D03*
X72930000Y-110910000D03*
X72930000Y-111310000D03*
X72930000Y-111710000D03*
D13*
X72180000Y-95405000D03*
D14*
X72180000Y-96710000D03*
X72180000Y-97910000D03*
X72180000Y-99110000D03*
X72180000Y-100310000D03*
X72180000Y-101510000D03*
X72180000Y-102710000D03*
X72180000Y-103910000D03*
X72180000Y-105110000D03*
X72180000Y-106310000D03*
X72180000Y-107510000D03*
X72180000Y-108710000D03*
X72180000Y-109910000D03*
X72180000Y-111110000D03*
D13*
X72180000Y-112415000D03*
D15*
X72855000Y-113495000D03*
D16*
X75210000Y-113445000D03*
D17*
X75845000Y-112350000D03*
D18*
X75845000Y-111110000D03*
D19*
X75845000Y-109917500D03*
X75845000Y-108702500D03*
D18*
X75845000Y-107510000D03*
X75845000Y-106310000D03*
X75845000Y-105110000D03*
X75845000Y-103910000D03*
X75845000Y-102710000D03*
X75845000Y-101510000D03*
X75845000Y-100310000D03*
X75845000Y-99110000D03*
X75845000Y-97910000D03*
X75845000Y-96710000D03*
D17*
X75845000Y-95470000D03*
D16*
X75210000Y-94375000D03*
D15*
X72855000Y-94325000D03*
%LPD*%
M02*
